<mxfile host="app.diagrams.net" modified="2022-10-02T03:28:44.515Z" agent="5.0 (Windows NT 10.0; Win64; x64) AppleWebKit/537.36 (KHTML, like Gecko) Chrome/106.0.0.0 Safari/537.36" etag="0Wrw-1GTykSNloaPwbvQ" version="20.4.0" type="github">
  <diagram id="C5RBs43oDa-KdzZeNtuy" name="Page-1">
    <mxGraphModel dx="868" dy="450" grid="1" gridSize="10" guides="1" tooltips="1" connect="1" arrows="1" fold="1" page="1" pageScale="1" pageWidth="827" pageHeight="1169" math="0" shadow="0">
      <root>
        <mxCell id="WIyWlLk6GJQsqaUBKTNV-0" />
        <mxCell id="WIyWlLk6GJQsqaUBKTNV-1" parent="WIyWlLk6GJQsqaUBKTNV-0" />
        <mxCell id="zkfFHV4jXpPFQw0GAbJ--17" value="Mestre" style="swimlane;fontStyle=0;align=center;verticalAlign=top;childLayout=stackLayout;horizontal=1;startSize=26;horizontalStack=0;resizeParent=1;resizeLast=0;collapsible=1;marginBottom=0;rounded=0;shadow=0;strokeWidth=1;" parent="WIyWlLk6GJQsqaUBKTNV-1" vertex="1">
          <mxGeometry x="540" y="50" width="250" height="190" as="geometry">
            <mxRectangle x="550" y="140" width="160" height="26" as="alternateBounds" />
          </mxGeometry>
        </mxCell>
        <mxCell id="zkfFHV4jXpPFQw0GAbJ--18" value="+ nome: String&#xa;+cenario: Cenario&#xa;&#xa; " style="text;align=left;verticalAlign=top;spacingLeft=4;spacingRight=4;overflow=hidden;rotatable=0;points=[[0,0.5],[1,0.5]];portConstraint=eastwest;" parent="zkfFHV4jXpPFQw0GAbJ--17" vertex="1">
          <mxGeometry y="26" width="250" height="54" as="geometry" />
        </mxCell>
        <mxCell id="zkfFHV4jXpPFQw0GAbJ--23" value="" style="line;html=1;strokeWidth=1;align=left;verticalAlign=middle;spacingTop=-1;spacingLeft=3;spacingRight=3;rotatable=0;labelPosition=right;points=[];portConstraint=eastwest;" parent="zkfFHV4jXpPFQw0GAbJ--17" vertex="1">
          <mxGeometry y="80" width="250" height="8" as="geometry" />
        </mxCell>
        <mxCell id="aQi3MAtJLsASPVlaxSXh-14" value="+chamarCenario(): Cenario&lt;br&gt;+chamarMonstros(): Personagem&lt;br&gt;+chamarPersonagem(): Personagem&lt;br&gt;+chamarNPC(): Personagem" style="text;html=1;align=left;verticalAlign=middle;resizable=0;points=[];autosize=1;strokeColor=none;fillColor=none;" parent="zkfFHV4jXpPFQw0GAbJ--17" vertex="1">
          <mxGeometry y="88" width="250" height="70" as="geometry" />
        </mxCell>
        <mxCell id="aQi3MAtJLsASPVlaxSXh-3" value="Cenário" style="rounded=0;whiteSpace=wrap;html=1;" parent="WIyWlLk6GJQsqaUBKTNV-1" vertex="1">
          <mxGeometry x="520" y="320" width="280" height="30" as="geometry" />
        </mxCell>
        <mxCell id="aQi3MAtJLsASPVlaxSXh-4" value="" style="rounded=0;whiteSpace=wrap;html=1;" parent="WIyWlLk6GJQsqaUBKTNV-1" vertex="1">
          <mxGeometry x="520" y="350" width="280" height="120" as="geometry" />
        </mxCell>
        <mxCell id="aQi3MAtJLsASPVlaxSXh-6" value="Itens" style="rounded=0;whiteSpace=wrap;html=1;" parent="WIyWlLk6GJQsqaUBKTNV-1" vertex="1">
          <mxGeometry x="110" y="210" width="220" height="40" as="geometry" />
        </mxCell>
        <mxCell id="aQi3MAtJLsASPVlaxSXh-7" style="edgeStyle=orthogonalEdgeStyle;rounded=0;orthogonalLoop=1;jettySize=auto;html=1;exitX=0.5;exitY=1;exitDx=0;exitDy=0;" parent="WIyWlLk6GJQsqaUBKTNV-1" edge="1">
          <mxGeometry relative="1" as="geometry">
            <mxPoint x="339.5" y="665" as="sourcePoint" />
            <mxPoint x="339.5" y="665" as="targetPoint" />
          </mxGeometry>
        </mxCell>
        <mxCell id="aQi3MAtJLsASPVlaxSXh-8" value="" style="rounded=0;whiteSpace=wrap;html=1;" parent="WIyWlLk6GJQsqaUBKTNV-1" vertex="1">
          <mxGeometry x="520" y="470" width="280" height="160" as="geometry" />
        </mxCell>
        <mxCell id="aQi3MAtJLsASPVlaxSXh-9" value="" style="rounded=0;whiteSpace=wrap;html=1;" parent="WIyWlLk6GJQsqaUBKTNV-1" vertex="1">
          <mxGeometry x="110" y="250" width="220" height="90" as="geometry" />
        </mxCell>
        <mxCell id="aQi3MAtJLsASPVlaxSXh-10" value="" style="rounded=0;whiteSpace=wrap;html=1;" parent="WIyWlLk6GJQsqaUBKTNV-1" vertex="1">
          <mxGeometry x="110" y="340" width="220" height="60" as="geometry" />
        </mxCell>
        <mxCell id="aQi3MAtJLsASPVlaxSXh-18" value="Personagem&amp;nbsp;" style="rounded=0;whiteSpace=wrap;html=1;" parent="WIyWlLk6GJQsqaUBKTNV-1" vertex="1">
          <mxGeometry x="99.5" y="470" width="240" height="35" as="geometry" />
        </mxCell>
        <mxCell id="aQi3MAtJLsASPVlaxSXh-19" value="&lt;br&gt;+equiparItens(): boolean&lt;br&gt;+rolarDados(): int" style="rounded=0;whiteSpace=wrap;html=1;" parent="WIyWlLk6GJQsqaUBKTNV-1" vertex="1">
          <mxGeometry x="99.5" y="675" width="240" height="100" as="geometry" />
        </mxCell>
        <mxCell id="aQi3MAtJLsASPVlaxSXh-20" value="" style="rounded=0;whiteSpace=wrap;html=1;" parent="WIyWlLk6GJQsqaUBKTNV-1" vertex="1">
          <mxGeometry x="99.5" y="505" width="240" height="170" as="geometry" />
        </mxCell>
        <mxCell id="aQi3MAtJLsASPVlaxSXh-21" value="+nome: String&#xa;+raca: String&#xa;+classe: String&#xa;+atributos: double&#xa;+exp: double&#xa;+habilidades: double&#xa;+itens: Itens&#xa;&#xa;&#xa;&#xa;" style="text;align=left;verticalAlign=top;spacingLeft=4;spacingRight=4;overflow=hidden;rotatable=0;points=[[0,0.5],[1,0.5]];portConstraint=eastwest;" parent="WIyWlLk6GJQsqaUBKTNV-1" vertex="1">
          <mxGeometry x="99.5" y="505" width="240" height="160" as="geometry" />
        </mxCell>
        <mxCell id="aQi3MAtJLsASPVlaxSXh-22" value="+ nome: String&#xa;+ atributo: double&#xa;+requisito: double&#xa;+habilidade:double&#xa;+tipo: String&#xa;&#xa;&#xa; " style="text;align=left;verticalAlign=top;spacingLeft=4;spacingRight=4;overflow=hidden;rotatable=0;points=[[0,0.5],[1,0.5]];portConstraint=eastwest;" parent="WIyWlLk6GJQsqaUBKTNV-1" vertex="1">
          <mxGeometry x="110" y="250" width="120" height="70" as="geometry" />
        </mxCell>
        <mxCell id="aQi3MAtJLsASPVlaxSXh-23" value="+titulo: String&#xa;+tema: String&#xa;+enredo: String&#xa;+mapas: double[][]&#xa;+personagens: Personagem[]&#xa;+dados: int" style="text;align=left;verticalAlign=top;spacingLeft=4;spacingRight=4;overflow=hidden;rotatable=0;points=[[0,0.5],[1,0.5]];portConstraint=eastwest;" parent="WIyWlLk6GJQsqaUBKTNV-1" vertex="1">
          <mxGeometry x="520" y="350" width="280" height="110" as="geometry" />
        </mxCell>
        <mxCell id="aQi3MAtJLsASPVlaxSXh-24" value="...0" style="text;html=1;align=center;verticalAlign=middle;resizable=0;points=[];autosize=1;strokeColor=none;fillColor=none;" parent="WIyWlLk6GJQsqaUBKTNV-1" vertex="1">
          <mxGeometry x="650" y="260" width="40" height="30" as="geometry" />
        </mxCell>
        <mxCell id="aQi3MAtJLsASPVlaxSXh-25" value="1" style="text;html=1;align=center;verticalAlign=middle;resizable=0;points=[];autosize=1;strokeColor=none;fillColor=none;" parent="WIyWlLk6GJQsqaUBKTNV-1" vertex="1">
          <mxGeometry x="580" y="300" width="30" height="30" as="geometry" />
        </mxCell>
        <mxCell id="aQi3MAtJLsASPVlaxSXh-28" value="" style="endArrow=classic;html=1;rounded=0;" parent="WIyWlLk6GJQsqaUBKTNV-1" edge="1">
          <mxGeometry width="50" height="50" relative="1" as="geometry">
            <mxPoint x="659.5" y="240" as="sourcePoint" />
            <mxPoint x="659.5" y="320" as="targetPoint" />
            <Array as="points" />
          </mxGeometry>
        </mxCell>
        <mxCell id="aQi3MAtJLsASPVlaxSXh-29" value="" style="endArrow=classic;html=1;rounded=0;" parent="WIyWlLk6GJQsqaUBKTNV-1" edge="1">
          <mxGeometry width="50" height="50" relative="1" as="geometry">
            <mxPoint x="219" y="400" as="sourcePoint" />
            <mxPoint x="219" y="400" as="targetPoint" />
            <Array as="points">
              <mxPoint x="219" y="470" />
            </Array>
          </mxGeometry>
        </mxCell>
        <mxCell id="aQi3MAtJLsASPVlaxSXh-30" value="" style="endArrow=classic;html=1;rounded=0;exitX=0;exitY=0.385;exitDx=0;exitDy=0;exitPerimeter=0;" parent="WIyWlLk6GJQsqaUBKTNV-1" source="aQi3MAtJLsASPVlaxSXh-32" edge="1">
          <mxGeometry width="50" height="50" relative="1" as="geometry">
            <mxPoint x="489" y="530" as="sourcePoint" />
            <mxPoint x="339" y="530" as="targetPoint" />
            <Array as="points">
              <mxPoint x="389" y="530" />
            </Array>
          </mxGeometry>
        </mxCell>
        <mxCell id="aQi3MAtJLsASPVlaxSXh-32" value="+darTitulo():String&lt;br&gt;+darTema():String&lt;br&gt;+criarEnredo():String&lt;br&gt;+criarMapa():double[][]&lt;br&gt;+criarPersonagem():Personagem&lt;br&gt;+criarMonstro():Personagem&lt;br&gt;+moverPersonagem(): int&lt;br&gt;+acaoPersonagem(Personagem, valor): int" style="text;html=1;align=left;verticalAlign=middle;resizable=0;points=[];autosize=1;strokeColor=none;fillColor=none;" parent="WIyWlLk6GJQsqaUBKTNV-1" vertex="1">
          <mxGeometry x="520" y="480" width="250" height="130" as="geometry" />
        </mxCell>
        <mxCell id="aqDDlLiModhRZFDufuGG-1" value="" style="rounded=0;whiteSpace=wrap;html=1;" vertex="1" parent="WIyWlLk6GJQsqaUBKTNV-1">
          <mxGeometry x="9.5" y="10" width="130.5" height="30" as="geometry" />
        </mxCell>
        <mxCell id="aqDDlLiModhRZFDufuGG-2" value="" style="rounded=0;whiteSpace=wrap;html=1;" vertex="1" parent="WIyWlLk6GJQsqaUBKTNV-1">
          <mxGeometry x="9.5" y="40" width="130.5" height="60" as="geometry" />
        </mxCell>
        <mxCell id="aqDDlLiModhRZFDufuGG-5" value="" style="rounded=0;whiteSpace=wrap;html=1;" vertex="1" parent="WIyWlLk6GJQsqaUBKTNV-1">
          <mxGeometry x="9.5" y="100" width="130.5" height="60" as="geometry" />
        </mxCell>
        <mxCell id="aqDDlLiModhRZFDufuGG-6" value="" style="rounded=0;whiteSpace=wrap;html=1;" vertex="1" parent="WIyWlLk6GJQsqaUBKTNV-1">
          <mxGeometry x="160" y="10" width="130.5" height="30" as="geometry" />
        </mxCell>
        <mxCell id="aqDDlLiModhRZFDufuGG-7" value="" style="rounded=0;whiteSpace=wrap;html=1;" vertex="1" parent="WIyWlLk6GJQsqaUBKTNV-1">
          <mxGeometry x="160" y="40" width="130.5" height="60" as="geometry" />
        </mxCell>
        <mxCell id="aqDDlLiModhRZFDufuGG-8" value="" style="rounded=0;whiteSpace=wrap;html=1;" vertex="1" parent="WIyWlLk6GJQsqaUBKTNV-1">
          <mxGeometry x="160" y="100" width="130.5" height="60" as="geometry" />
        </mxCell>
        <mxCell id="aqDDlLiModhRZFDufuGG-9" value="" style="rounded=0;whiteSpace=wrap;html=1;" vertex="1" parent="WIyWlLk6GJQsqaUBKTNV-1">
          <mxGeometry x="310" y="10" width="130.5" height="30" as="geometry" />
        </mxCell>
        <mxCell id="aqDDlLiModhRZFDufuGG-10" value="" style="rounded=0;whiteSpace=wrap;html=1;" vertex="1" parent="WIyWlLk6GJQsqaUBKTNV-1">
          <mxGeometry x="310" y="40" width="130.5" height="60" as="geometry" />
        </mxCell>
        <mxCell id="aqDDlLiModhRZFDufuGG-11" value="" style="rounded=0;whiteSpace=wrap;html=1;" vertex="1" parent="WIyWlLk6GJQsqaUBKTNV-1">
          <mxGeometry x="310" y="100" width="130.5" height="60" as="geometry" />
        </mxCell>
        <mxCell id="aqDDlLiModhRZFDufuGG-13" value="" style="endArrow=classic;startArrow=classic;html=1;rounded=0;entryX=0.414;entryY=0.983;entryDx=0;entryDy=0;entryPerimeter=0;exitX=0.402;exitY=1.033;exitDx=0;exitDy=0;exitPerimeter=0;" edge="1" parent="WIyWlLk6GJQsqaUBKTNV-1" source="aqDDlLiModhRZFDufuGG-5" target="aqDDlLiModhRZFDufuGG-8">
          <mxGeometry width="50" height="50" relative="1" as="geometry">
            <mxPoint x="50" y="170" as="sourcePoint" />
            <mxPoint x="100" y="120" as="targetPoint" />
            <Array as="points">
              <mxPoint x="214" y="210" />
            </Array>
          </mxGeometry>
        </mxCell>
        <mxCell id="aqDDlLiModhRZFDufuGG-14" value="" style="endArrow=classic;html=1;rounded=0;exitX=0.5;exitY=0;exitDx=0;exitDy=0;entryX=0.5;entryY=1;entryDx=0;entryDy=0;" edge="1" parent="WIyWlLk6GJQsqaUBKTNV-1" source="aQi3MAtJLsASPVlaxSXh-6" target="aqDDlLiModhRZFDufuGG-11">
          <mxGeometry width="50" height="50" relative="1" as="geometry">
            <mxPoint x="390" y="220" as="sourcePoint" />
            <mxPoint x="440" y="170" as="targetPoint" />
          </mxGeometry>
        </mxCell>
        <mxCell id="aqDDlLiModhRZFDufuGG-16" value="" style="rounded=0;whiteSpace=wrap;html=1;" vertex="1" parent="WIyWlLk6GJQsqaUBKTNV-1">
          <mxGeometry x="9.75" y="870" width="130.5" height="30" as="geometry" />
        </mxCell>
        <mxCell id="aqDDlLiModhRZFDufuGG-17" value="" style="rounded=0;whiteSpace=wrap;html=1;" vertex="1" parent="WIyWlLk6GJQsqaUBKTNV-1">
          <mxGeometry x="9.75" y="900" width="130.5" height="60" as="geometry" />
        </mxCell>
        <mxCell id="aqDDlLiModhRZFDufuGG-18" value="" style="rounded=0;whiteSpace=wrap;html=1;" vertex="1" parent="WIyWlLk6GJQsqaUBKTNV-1">
          <mxGeometry x="9.75" y="960" width="130.5" height="60" as="geometry" />
        </mxCell>
        <mxCell id="aqDDlLiModhRZFDufuGG-19" value="" style="rounded=0;whiteSpace=wrap;html=1;" vertex="1" parent="WIyWlLk6GJQsqaUBKTNV-1">
          <mxGeometry x="160.25" y="870" width="130.5" height="30" as="geometry" />
        </mxCell>
        <mxCell id="aqDDlLiModhRZFDufuGG-20" value="" style="rounded=0;whiteSpace=wrap;html=1;" vertex="1" parent="WIyWlLk6GJQsqaUBKTNV-1">
          <mxGeometry x="160.25" y="900" width="130.5" height="60" as="geometry" />
        </mxCell>
        <mxCell id="aqDDlLiModhRZFDufuGG-21" value="" style="rounded=0;whiteSpace=wrap;html=1;" vertex="1" parent="WIyWlLk6GJQsqaUBKTNV-1">
          <mxGeometry x="160.25" y="960" width="130.5" height="60" as="geometry" />
        </mxCell>
        <mxCell id="aqDDlLiModhRZFDufuGG-22" value="" style="rounded=0;whiteSpace=wrap;html=1;" vertex="1" parent="WIyWlLk6GJQsqaUBKTNV-1">
          <mxGeometry x="310.25" y="870" width="130.5" height="30" as="geometry" />
        </mxCell>
        <mxCell id="aqDDlLiModhRZFDufuGG-23" value="" style="rounded=0;whiteSpace=wrap;html=1;" vertex="1" parent="WIyWlLk6GJQsqaUBKTNV-1">
          <mxGeometry x="310.25" y="900" width="130.5" height="60" as="geometry" />
        </mxCell>
        <mxCell id="aqDDlLiModhRZFDufuGG-24" value="" style="rounded=0;whiteSpace=wrap;html=1;" vertex="1" parent="WIyWlLk6GJQsqaUBKTNV-1">
          <mxGeometry x="310.25" y="960" width="130.5" height="60" as="geometry" />
        </mxCell>
      </root>
    </mxGraphModel>
  </diagram>
</mxfile>
